<svg width="131" height="20" viewBox="0 0 131 20" fill="none" xmlns="http://www.w3.org/2000/svg">
<path d="M123.816 9.16257C124.572 8.36344 125.692 7.93973 126.789 7.93973C130.128 7.93973 130.955 10.1865 130.955 13.0575V19.6978C130.955 19.8735 130.833 19.9967 130.663 19.9967H128.567C128.397 19.9967 128.251 19.8735 128.251 19.6978V13.3331C128.251 11.6108 128.031 10.437 126.155 10.437C123.793 10.437 123.793 12.6821 123.793 14.6067V19.6978C123.793 19.8735 123.646 19.9967 123.476 19.9967H121.38C121.209 19.9967 121.064 19.8735 121.064 19.6978V8.56322C121.064 8.43836 121.209 8.28852 121.38 8.28852H123.476C123.646 8.28852 123.793 8.43836 123.793 8.56322L123.816 9.16257ZM119.577 13.7809C119.577 17.3013 116.896 19.9967 113.46 19.9967C110.05 19.9967 107.344 17.3013 107.344 13.7809C107.344 10.2855 110.051 7.56431 113.46 7.56431C116.896 7.56431 119.577 10.2855 119.577 13.7809ZM110.073 13.7809C110.073 15.7271 111.584 17.3753 113.46 17.3753C115.385 17.3753 116.896 15.7271 116.896 13.7809C116.896 11.833 115.385 10.2106 113.46 10.2106C111.584 10.2106 110.073 11.8338 110.073 13.7809ZM100.666 10.8349H98.7167C98.5462 10.8349 98.4001 10.76 98.4001 10.5844V8.56322C98.4001 8.43836 98.5462 8.28852 98.7167 8.28852H99.1541C100.666 8.28852 100.666 7.16391 100.666 6.56539V5.2926C100.666 5.11779 100.812 5.0179 100.984 5.0179H103.077C103.248 5.0179 103.371 5.11779 103.371 5.2926V8.28935H105.929C106.1 8.28935 106.246 8.43919 106.246 8.56406V10.5852C106.246 10.7608 106.1 10.8358 105.929 10.8358H103.371V14.58C103.371 15.529 103.299 17.1015 104.395 17.352C105.004 17.427 105.37 17.2771 105.735 17.1264C105.735 17.1264 105.858 17.0765 105.929 17.0765C106.1 17.0765 106.246 17.2005 106.246 17.3512V19.4731C106.246 19.5488 106.149 19.6987 106.028 19.7228H106.051C105.541 19.9484 104.856 19.9967 104.32 19.9967C101.396 19.9967 100.664 17.9006 100.664 15.3301L100.666 10.8349ZM89.3862 14.729C89.5088 16.3773 90.6533 17.5252 92.3351 17.5252C93.7979 17.5252 94.4536 16.7269 95.211 15.4782C95.3084 15.3534 95.4302 15.3043 95.6006 15.4033L97.3791 16.4264C97.5017 16.5271 97.5999 16.652 97.526 16.8018V16.776C96.4537 18.8246 94.5527 19.9967 92.3108 19.9967C88.8278 19.9967 86.6825 17.3013 86.6825 13.8558C86.6825 10.2855 88.5835 7.56514 92.2629 7.56514C95.9424 7.56514 97.6965 10.6351 97.6965 14.1039V14.4552C97.6965 14.6292 97.5504 14.7282 97.3799 14.7282L89.3862 14.729ZM94.9188 12.3833C94.5771 11.1105 93.6501 10.0117 92.2621 10.0117C90.9707 10.0117 89.9236 11.1596 89.5818 12.3833H94.9188ZM84.9342 19.697C84.9347 19.775 84.9043 19.85 84.8494 19.9059C84.7946 19.9618 84.7198 19.9941 84.6412 19.9958H82.5454C82.3758 19.9958 82.228 19.8726 82.228 19.697V0.649296C82.228 0.524432 82.3758 0.374594 82.5454 0.374594H84.6412C84.7881 0.374594 84.9342 0.524432 84.9342 0.649296V19.697ZM68.9603 0.27387C68.9603 0.149838 69.1064 0 69.2769 0H71.397C71.5675 0 71.7119 0.149838 71.7119 0.27387V9.16257C72.6154 8.16366 73.7842 7.56431 75.1966 7.56431C78.5359 7.56431 80.6057 10.4603 80.6057 13.706C80.6057 17.0524 78.656 19.9983 75.0975 19.9983C73.8069 19.9983 72.5625 19.3482 71.6859 18.4242V19.3232C71.6859 19.4972 71.5398 19.6221 71.3702 19.6221H69.2743C69.1039 19.6221 68.9578 19.4972 68.9578 19.3232L68.9603 0.27387ZM77.9272 13.7568C77.9272 11.7598 76.7567 10.0624 74.686 10.0624C72.738 10.0624 71.5683 11.8597 71.5683 13.7568C71.5683 15.7047 72.6885 17.5252 74.686 17.5252C76.7819 17.526 77.9272 15.8037 77.9272 13.7568ZM54.8521 15.4041L52.9024 19.7977C52.8537 19.8726 52.6832 19.9975 52.6102 19.9975H50.2213C49.9786 19.9975 49.8569 19.7977 49.9291 19.573L58.4333 0.574378C58.5794 0.348789 58.896 0.348789 59.0177 0.574378C61.7719 6.74103 64.7686 13.408 67.5219 19.5746C67.595 19.8002 67.4724 20 67.2297 20H64.8392C64.7418 20 64.5957 19.8751 64.547 19.8002C63.9374 18.3759 63.2312 16.8542 62.5981 15.4058L54.8521 15.4041ZM58.7255 6.44136L55.9731 12.7562H61.4796L58.7255 6.44136ZM2.77218 19.697C2.77198 19.7752 2.74096 19.8502 2.68574 19.906C2.63052 19.9619 2.55547 19.9941 2.47662 19.9958H0.364838C0.192704 19.9958 0.0449219 19.871 0.0449219 19.697V0.588529C0.0449219 0.463664 0.192704 0.313827 0.364838 0.313827H2.47746C2.62524 0.313827 2.77302 0.463664 2.77302 0.588529L2.77218 19.697ZM8.29975 19.697C8.29955 19.7752 8.26853 19.8502 8.21331 19.906C8.15809 19.9619 8.08304 19.9941 8.00419 19.9958H5.89241C5.72028 19.9958 5.57333 19.871 5.57333 19.697V0.588529C5.57333 0.463664 5.72028 0.313827 5.89241 0.313827H8.00503C8.15281 0.313827 8.30059 0.463664 8.30059 0.588529L8.29975 19.697ZM13.8273 19.697C13.8271 19.7752 13.7961 19.8502 13.7409 19.906C13.6857 19.9619 13.6106 19.9941 13.5318 19.9958H11.4191C11.247 19.9958 11.1001 19.871 11.1001 19.697V0.588529C11.1001 0.463664 11.247 0.313827 11.4191 0.313827H13.5318C13.6804 0.313827 13.8273 0.463664 13.8273 0.588529V19.697ZM19.3792 19.697C19.3791 19.775 19.3482 19.8499 19.2931 19.9058C19.2381 19.9616 19.1632 19.9939 19.0845 19.9958H16.9719C16.7998 19.9958 16.652 19.871 16.652 19.697V0.588529C16.652 0.463664 16.7998 0.313827 16.9719 0.313827H19.0845C19.2315 0.313827 19.3792 0.463664 19.3792 0.588529V19.697ZM41.1209 0.288021C41.2922 0.288021 41.4156 0.439524 41.4156 0.588529V2.74286C41.4156 2.91851 41.2931 3.06834 41.1209 3.06834H22.376C22.2535 3.06834 22.1065 2.91851 22.1065 2.74286V0.588529C22.1065 0.438691 22.2543 0.288021 22.376 0.288021H41.1209ZM41.1209 5.94856C41.2922 5.94856 41.4156 6.09923 41.4156 6.24906V8.40256C41.4156 8.57737 41.2931 8.72804 41.1209 8.72804H22.376C22.2535 8.72804 22.1065 8.57737 22.1065 8.40256V6.24906C22.1065 6.09839 22.2543 5.94856 22.376 5.94856H41.1209ZM41.1209 11.5825C41.2922 11.5825 41.4156 11.7331 41.4156 11.883V14.0356C41.4156 14.2129 41.2931 14.3636 41.1209 14.3636H22.376C22.2535 14.3636 22.1065 14.2129 22.1065 14.0356V11.883C22.1065 11.7315 22.2543 11.5825 22.376 11.5825H41.1209ZM41.1209 17.2163C41.2922 17.2163 41.4156 17.3679 41.4156 17.5169V19.6712C41.4156 19.8468 41.2931 19.9967 41.1209 19.9967H22.376C22.2535 19.9967 22.1065 19.8468 22.1065 19.6712V17.5169C22.1065 17.367 22.2543 17.2163 22.376 17.2163H41.1209Z" fill="black"/>
</svg>
