<svg width="100" height="100" viewBox="0 0 100 100" fill="none" xmlns="http://www.w3.org/2000/svg">
<g clip-path="url(#clip0_248_133)">
<rect width="100" height="100" fill="#FE3468"/>
<path d="M38.551 35.4688H32.0824V68.75H38.551V35.4688Z" fill="black"/>
<path d="M0 0V100H100V0H0ZM94.1406 94.1406H5.85938V5.85938H94.1406V94.1406Z" fill="black"/>
<path d="M68.6445 61.5313V34.5312H62.3633V48.5C61.5504 47.0938 59.0006 43.7656 54.0666 43.7656C48.2422 43.7656 43.0978 48.8281 43.0978 56.4688C43.0978 63.208 47.5586 69.2188 54.7699 69.2188C59.6924 69.2188 62.3943 66.0475 63.3008 64.4844C63.3008 64.4844 62.8902 69.0781 67.4256 69.0781C68.1127 69.0781 69.0033 68.9684 70.0976 68.75V63.4063C69.566 63.3754 68.6445 62.1875 68.6445 61.5313ZM62.3633 59.75C62.1443 60.3439 60.3516 63.875 56.4103 63.875C52.2461 63.875 49.6135 60.1889 49.6135 56.6094C49.6135 53.3529 51.7578 49.1094 56.0353 49.1094C59.8631 49.1094 62.1129 53.2035 62.3633 53.8906V59.75Z" fill="black"/>
</g>
<defs>
<clipPath id="clip0_248_133">
<rect width="100" height="100" fill="white"/>
</clipPath>
</defs>
</svg>
