<svg width="100" height="100" viewBox="0 0 100 100" fill="none" xmlns="http://www.w3.org/2000/svg">
<g clip-path="url(#clip0_248_107)">
<rect width="100" height="100" fill="#31ABFD"/>
<path d="M0 0V100H100V0H0ZM94.1406 94.1406H5.85938V5.85938H94.1406V94.1406Z" fill="black"/>
<path d="M41.6215 35.4688H27.5121V68.75H33.9809V57.5938H41.8559C47.6236 57.5938 52.2152 52.5717 52.2152 46.5312C52.2152 41.4062 48.0793 35.4688 41.6215 35.4688ZM41.4809 51.9219H33.9809V41.1406H41.1996C43.9451 41.1406 45.6527 43.7188 45.6527 46.5312C45.6527 49.8047 43.75 51.9219 41.4809 51.9219Z" fill="black"/>
<path d="M65.8084 54.0313C64.9018 53.8129 60.9803 53.1738 60.9803 50.9375C60.9803 49.1455 62.4512 48.1719 64.7303 48.1719C67.8223 48.1719 70.6051 49.9531 71.8553 50.8906L74.3865 47.0937C73.0426 45.9064 70.166 43.7188 64.7771 43.7188C59.6436 43.7188 55.1209 46.6309 55.1209 51.8281C55.1209 57.2266 62.2928 58.2346 63.8865 58.6719C65.7922 59.2037 69.2771 59.8877 69.2771 62C69.2771 63.7207 67.627 64.7187 65.2459 64.7187C61.5723 64.7187 58.1209 62.5471 56.6209 61.4844L54.2771 65.4219C55.6834 66.6406 59.7168 69.2188 65.3865 69.2188C68.4488 69.2188 75.324 68.2617 75.324 61.4375C75.324 55.6641 67.4959 54.4691 65.8084 54.0313Z" fill="black"/>
</g>
<defs>
<clipPath id="clip0_248_107">
<rect width="100" height="100" fill="white"/>
</clipPath>
</defs>
</svg>
