<svg width="222" height="211" viewBox="0 0 222 211" fill="none" xmlns="http://www.w3.org/2000/svg">
<g clip-path="url(#clip0_10_3)">
<path d="M93.6699 19.4446C95.544 13.5335 84.6813 11.9826 80.7718 11.7045C74.2664 11.2494 67.3594 12.5971 61.7911 16.0995C55.725 19.9212 51.8704 27.7063 54.6692 34.7344C57.2249 41.1851 64.0182 43.9418 70.4275 44.9343C74.9686 45.6393 82.3746 45.7511 85.7325 41.893C90.5386 36.3631 81.932 31.4697 77.5027 30.3678C64.8086 27.2159 50.6978 34.8547 48.2826 48.2769C47.0936 54.9006 49.09 62.133 52.6502 67.7731C56.616 74.0434 65.7399 77.1495 72.8063 77.8474C77.6484 78.3192 85.6214 78.5378 89.3352 74.5542C93.8364 69.7276 86.7365 64.6288 82.4338 63.5767C69.2836 60.3552 56.2606 70.5114 55.574 83.8028C54.7982 98.8905 69.8142 107.744 83.434 103.704C87.5582 102.478 94.1104 97.9822 90.5684 93.0089C87.6665 88.917 80.7528 89.006 76.5006 90.2964C62.8045 94.48 59.0005 113.574 67.8748 123.873C72.395 129.128 80.0085 131.144 86.6713 131.418C91.5896 131.618 99.9351 131.354 102.368 126.041C105.189 119.888 96.3394 119.086 92.5265 119.665C86.6995 120.556 80.6454 123.978 77.8536 129.324C74.4701 135.796 76.0609 145.366 80.204 151.189C84.034 156.571 91.8695 159.673 98.1975 160.575C103.852 161.375 110.844 160.338 115.521 156.815C120.965 152.715 117.51 147.76 111.69 147.327C106.064 146.908 99.964 148.784 97.1767 153.98C93.6668 160.531 95.1363 168.392 101.209 172.71C110.43 179.27 128.746 181.162 136.802 171.445C140.291 167.23 137.771 163.622 132.721 163.138C128.044 162.683 123.009 164.539 119.72 167.877C114.04 173.669 115.507 180.875 121.254 186.034C126.242 190.51 133.038 192.284 139.637 191.868C146.237 191.452 152.329 188.431 157.322 184.239C160.637 181.46 165.895 172.172 161.99 167.894C159.27 164.906 153.413 166.926 151.239 169.476C146.704 174.762 153.303 179.206 158.117 180.435C163.913 181.924 169.378 181.294 174.241 177.714C175.765 176.589 170.197 176.306 168.975 177.212C165.408 179.841 159.653 178.846 156.827 175.429C154.619 172.76 156.712 172.012 156.916 169.655L157.521 168.896C157.124 168.977 156.72 169.051 156.322 169.117C156.397 170.162 156.998 171.14 157.065 172.242C157.54 179.86 151.105 185.587 144.736 188.426C136.282 192.211 122.551 185.916 122.016 175.936C121.833 172.541 123.431 169.543 126.073 167.353C127.4 166.25 130.413 164.7 131.965 166.283C133.517 167.866 132.255 169.929 131.133 171.273C125.144 178.494 113.4 176.011 106.76 171.33C103.375 168.95 101.465 165.7 101.247 161.498C101.149 159.616 101.435 157.734 102.066 155.948C103.164 152.871 103.998 152.065 107.234 150.911C108.911 150.316 110.633 149.055 111.89 150.927C112.848 152.356 112.399 152.919 111.705 154.335C110.367 157.054 107.437 157.826 104.631 158.249C99.6225 159.013 94.5666 156.708 90.4066 154.017C84.1283 149.957 81.2949 141.737 82.1548 134.404C82.6725 129.969 84.8784 126.433 88.5508 123.913C90.5586 122.534 94.9506 120.843 96.3602 123.374C98.4463 127.11 92.4569 129.023 89.6008 129.188C80.6715 129.703 72.4243 123.958 69.7499 115.571C67.5605 108.709 69.4177 101.953 73.7991 96.443C74.9525 94.9966 76.7279 92.8183 78.5792 92.1969C81.1078 91.3356 84.4036 92.6719 85.2369 95.2037C87.2111 101.229 78.0259 102.883 73.9543 101.798C66.069 99.7051 61.3305 91.6931 61.4775 83.842C61.6244 75.9909 67.1213 65.7934 76.2411 65.2637C78.927 65.1033 85.8287 68.3175 84.7088 72.208C84.3469 73.4798 81.3935 75.371 80.2086 75.654C79.1767 75.9055 78.0349 75.8136 76.9884 75.7465C74.6518 75.5971 72.4007 75.1962 70.1757 74.4579C62.0754 71.7844 57.0369 66.6027 54.8203 58.3633C52.7561 50.6547 54.2771 42.6202 60.0277 36.8843C64.492 32.4248 70.6937 30.4378 76.633 33.4473C78.6102 34.4484 80.9374 36.5984 80.9631 39.0363C80.9944 43.0389 75.1083 43.0904 72.2103 42.5061C63.4274 40.7208 57.2918 33.0655 60.6715 24.1598C62.8769 18.3467 68.4764 14.8052 74.527 14.0663C76.9628 13.7705 89.5292 14.1474 87.8213 19.5131C87.3208 21.0709 93.1615 20.9321 93.6402 19.4337L93.6699 19.4446Z" fill="black"/>
</g>
<defs>
<clipPath id="clip0_10_3">
<rect width="189.71" height="117.69" fill="white" transform="translate(73.3757) rotate(38.5697)"/>
</clipPath>
</defs>
</svg>
