<svg width="100" height="100" viewBox="0 0 100 100" fill="none" xmlns="http://www.w3.org/2000/svg">
<path d="M16.5565 88.0576L8.98113 2.5H91.0185L83.4312 88.0636L50.0001 97.4042L16.5565 88.0576Z" fill="#2196F3" stroke="black" stroke-width="5"/>
<path d="M75.2185 29.2974L75.2184 29.2982L74.2122 40.6035L74.2121 40.6044L71.2675 73.4624L49.9796 79.3492L28.7267 73.4629L27.3835 58.4061H35.4723L36.1747 66.234L36.2682 67.2756L37.2779 67.5481L49.5966 70.8731L50.4346 71.0993L50.7711 70.7627L62.7216 67.542L63.7105 67.2754L63.8223 66.2573L65.5035 50.9385L65.6866 49.2703L64.0084 49.2749L26.5628 49.3774L25.7762 41.8866L64.9614 41.4248L66.3386 41.4086L66.4397 40.035L67.2647 28.8225L67.3835 27.2079L65.7646 27.2124L24.4187 27.3273L23.9069 19.8999H50H76.0597L75.2185 29.2974Z" fill="#FAFAFA" stroke="black" stroke-width="3"/>
</svg>
