<svg width="100" height="100" viewBox="0 0 100 100" fill="none" xmlns="http://www.w3.org/2000/svg">
<path fill-rule="evenodd" clip-rule="evenodd" d="M31.5972 8.3335C31.5972 6.60762 32.9963 5.2085 34.7222 5.2085H51.7363V39.2363H34.7222C25.3257 39.2363 17.7083 31.6189 17.7083 22.2224C17.7083 20.4965 19.1075 19.0974 20.8333 19.0974C22.5592 19.0974 23.9583 20.4965 23.9583 22.2224C23.9583 28.1671 28.7775 32.9863 34.7222 32.9863H45.4863V11.4585H34.7222C32.9963 11.4585 31.5972 10.0594 31.5972 8.3335Z" fill="black"/>
<path fill-rule="evenodd" clip-rule="evenodd" d="M62.5009 11.4585C68.4454 11.4585 73.2646 16.2777 73.2646 22.2224C73.2646 28.1671 68.4454 32.9863 62.5009 32.9863H51.7367V11.4585H62.5009ZM79.5146 22.2224C79.5146 12.8259 71.8971 5.2085 62.5009 5.2085H45.4867V39.2363H62.5009C71.8971 39.2363 79.5146 31.6189 79.5146 22.2224Z" fill="black"/>
<path fill-rule="evenodd" clip-rule="evenodd" d="M79.5146 49.9991C79.5146 40.6027 71.8971 32.9854 62.5009 32.9854C53.1042 32.9854 45.4867 40.6027 45.4867 49.9991C45.4867 59.3958 53.1042 67.0133 62.5009 67.0133C71.8971 67.0133 79.5146 59.3958 79.5146 49.9991ZM62.5009 39.2354C68.4454 39.2354 73.2646 44.0545 73.2646 49.9991C73.2646 55.9441 68.4454 60.7633 62.5009 60.7633C56.5559 60.7633 51.7367 55.9441 51.7367 49.9991C51.7367 44.0545 56.5559 39.2354 62.5009 39.2354Z" fill="black"/>
<path fill-rule="evenodd" clip-rule="evenodd" d="M17.7083 49.9991C17.7083 40.6027 25.3257 32.9854 34.7222 32.9854H51.7363V67.0133H34.7222C25.3257 67.0133 17.7083 59.3958 17.7083 49.9991ZM34.7222 39.2354C28.7775 39.2354 23.9583 44.0545 23.9583 49.9991C23.9583 55.9441 28.7775 60.7633 34.7222 60.7633H45.4863V39.2354H34.7222Z" fill="black"/>
<path fill-rule="evenodd" clip-rule="evenodd" d="M17.7083 77.7784C17.7083 68.3821 25.3257 60.7646 34.7222 60.7646H51.7363V77.7784C51.7363 87.1751 44.1188 94.7926 34.7222 94.7926C25.3257 94.7926 17.7083 87.1751 17.7083 77.7784ZM34.7222 67.0146C28.7775 67.0146 23.9583 71.8338 23.9583 77.7784C23.9583 83.7234 28.7775 88.5426 34.7222 88.5426C40.667 88.5426 45.4863 83.7234 45.4863 77.7784V67.0146H34.7222Z" fill="black"/>
</svg>
