<svg width="89" height="102" viewBox="0 0 89 102" fill="none" xmlns="http://www.w3.org/2000/svg">
<path d="M74.5765 15.8598L74.7278 13.7188H72.5815H15.744H13.6003L13.7488 15.8574L16.4443 54.6676L16.5736 56.5291H18.4395H55.9624L55.1521 68.1268L44.1629 71.8044L33.1713 68.1247L33.0311 66.2038L32.8956 64.3494H31.0364H19.3176H17.1754L17.3223 66.4866L18.1433 78.4255L18.2348 79.7572L19.4998 80.1836L43.524 88.2808L44.1628 88.4961L44.8016 88.2808L68.825 80.1836L70.0873 79.7581L70.1812 78.4294L72.6966 42.8497L72.848 40.7087H70.7016H31.2622L30.483 29.5392H71.7461H73.6097L73.7411 27.6802L74.5765 15.8598ZM80.2021 87.7375L44.1628 99.7032L8.12343 87.7375L2.14595 2.94336H86.1796L80.2021 87.7375Z" fill="#FFBD12" stroke="black" stroke-width="4"/>
</svg>
