<svg width="100" height="100" viewBox="0 0 100 100" fill="none" xmlns="http://www.w3.org/2000/svg">
<g clip-path="url(#clip0_330_112)">
<rect width="100" height="100" fill="#FFDF00"/>
<g filter="url(#filter0_d_330_112)">
<path d="M0 0H100V100H0V0Z" fill="#FFDF00"/>
<path d="M3 3H97V97H3V3Z" stroke="black" stroke-width="6"/>
</g>
<path d="M67.1746 78.1252C69.1889 81.4141 71.8096 83.8314 76.4445 83.8314C80.3381 83.8314 82.8254 81.8853 82.8254 79.1965C82.8254 75.9742 80.2699 74.833 75.9842 72.9584L73.635 71.9504C66.8539 69.0615 62.3492 65.4424 62.3492 57.7916C62.3492 50.7439 67.7191 45.3789 76.1111 45.3789C82.0857 45.3789 86.3811 47.4582 89.4762 52.9027L82.1588 57.6012C80.5477 54.7123 78.8096 53.5742 76.1111 53.5742C73.3588 53.5742 71.6143 55.3203 71.6143 57.6012C71.6143 60.4203 73.3604 61.5615 77.392 63.3076L79.7412 64.3139C87.7254 67.7377 92.2332 71.2281 92.2332 79.0758C92.2332 87.5361 85.5871 92.1711 76.6617 92.1711C67.9348 92.1711 62.2967 88.0123 59.5379 82.5615L67.1746 78.1252ZM33.9793 78.9394C35.4555 81.5586 36.7984 83.7729 40.027 83.7729C43.1143 83.7729 45.0619 82.5648 45.0619 77.8682V45.9156H54.4588V77.9949C54.4588 87.725 48.7541 92.1537 40.427 92.1537C32.9031 92.1537 28.5461 88.26 26.3301 83.5703L33.9793 78.9394Z" fill="black"/>
</g>
<defs>
<filter id="filter0_d_330_112" x="-4" y="0" width="108" height="108" filterUnits="userSpaceOnUse" color-interpolation-filters="sRGB">
<feFlood flood-opacity="0" result="BackgroundImageFix"/>
<feColorMatrix in="SourceAlpha" type="matrix" values="0 0 0 0 0 0 0 0 0 0 0 0 0 0 0 0 0 0 127 0" result="hardAlpha"/>
<feOffset dy="4"/>
<feGaussianBlur stdDeviation="2"/>
<feComposite in2="hardAlpha" operator="out"/>
<feColorMatrix type="matrix" values="0 0 0 0 0 0 0 0 0 0 0 0 0 0 0 0 0 0 0.25 0"/>
<feBlend mode="normal" in2="BackgroundImageFix" result="effect1_dropShadow_330_112"/>
<feBlend mode="normal" in="SourceGraphic" in2="effect1_dropShadow_330_112" result="shape"/>
</filter>
<clipPath id="clip0_330_112">
<rect width="100" height="100" fill="white"/>
</clipPath>
</defs>
</svg>
