<svg width="119" height="71" viewBox="0 0 119 71" fill="none" xmlns="http://www.w3.org/2000/svg">
<g clip-path="url(#clip0_330_111)">
<path d="M37.9143 12.7335C37.7032 12.824 37.4934 12.9181 37.2848 13.016C38.5877 11.1421 40.0658 9.55753 41.7079 8.24391C45.9722 4.83246 51.6519 3 59.013 3C65.8188 3 70.6305 4.57018 74.3853 6.73245C78.2093 8.93458 81.0668 11.814 83.9845 14.7755C84.0693 14.8616 84.1543 14.948 84.2396 15.0346C87.5951 18.4433 91.3287 22.2362 96.6438 23.565C101.158 24.6936 105.522 24.4297 109.618 22.6743C109.829 22.5838 110.039 22.4896 110.248 22.3918C108.945 24.2657 107.467 25.8503 105.825 27.1639C101.56 30.5753 95.8805 32.4078 88.5195 32.4078C81.7137 32.4078 76.9019 30.8376 73.1472 28.6753C69.3231 26.4732 66.4656 23.5938 63.548 20.6323C63.4632 20.5462 63.3781 20.4598 63.2928 20.3732C59.9374 16.9645 56.2037 13.1716 50.8886 11.8428C46.3743 10.7142 42.0103 10.9781 37.9143 12.7335ZM8.40785 48.1413C8.19674 48.2317 7.98689 48.3259 7.77832 48.4238C9.08122 46.5499 10.5593 44.9653 12.2014 43.6517C16.4657 40.2403 22.1454 38.4078 29.5065 38.4078C36.3123 38.4078 41.124 39.978 44.8788 42.1403C48.7028 44.3424 51.5604 47.2218 54.478 50.1833C54.5628 50.2694 54.6479 50.3558 54.7331 50.4424C58.0886 53.8511 61.8222 57.644 67.1373 58.9728C71.6517 60.1014 76.0157 59.8375 80.1116 58.0821C80.3227 57.9916 80.5326 57.8974 80.7412 57.7996C79.4383 59.6735 77.9602 61.2581 76.3181 62.5717C72.0538 65.9831 66.374 67.8156 59.013 67.8156C52.2072 67.8156 47.3955 66.2454 43.6407 64.0831C39.8166 61.881 36.9592 59.0016 34.0415 56.0401C33.9567 55.954 33.8716 55.8676 33.7864 55.781C30.4309 52.3723 26.6972 48.5794 21.3822 47.2506C16.8678 46.122 12.5038 46.3859 8.40785 48.1413Z" fill="url(#paint0_linear_330_111)" stroke="black" stroke-width="6"/>
</g>
<defs>
<linearGradient id="paint0_linear_330_111" x1="-327.85" y1="2266.1" x2="9865.63" y2="8143.42" gradientUnits="userSpaceOnUse">
<stop stop-color="#2298BD"/>
<stop offset="1" stop-color="#0ED7B5"/>
</linearGradient>
<clipPath id="clip0_330_111">
<rect width="118.026" height="71" fill="white"/>
</clipPath>
</defs>
</svg>
