<svg id="Layer_1" enable-background="new 0 0 53 53" viewBox="0 0 53 53" xmlns="http://www.w3.org/2000/svg"><g><g><g><g><g><g><circle cx="28.065" cy="26.5" r="22.435"/><path d="m28.0651932 49.4345703c-12.6459952 0-22.9345699-10.2880859-22.9345699-22.9345703s10.2885747-22.9345703 22.9345699-22.9345703c12.6464844 0 22.9350433 10.2880859 22.9350433 22.9345703s-10.2885589 22.9345703-22.9350433 22.9345703zm0-44.8691406c-12.0947256 0-21.9345703 9.8398438-21.9345703 21.9345703s9.8398438 21.9345703 21.9345703 21.9345703c12.0952148 0 21.9350433-9.8398438 21.9350433-21.9345703s-9.8398285-21.9345703-21.9350433-21.9345703z"/></g><g><circle cx="24.934" cy="26.5" fill="#fff" r="22.435"/><path d="m24.9343338 49.4345703c-12.6459951 0-22.9345698-10.2880859-22.9345698-22.9345703s10.2885747-22.9345703 22.9345698-22.9345703 22.9345703 10.2880859 22.9345703 22.9345703-10.2885742 22.9345703-22.9345703 22.9345703zm0-44.8691406c-12.0947256 0-21.9345698 9.8398437-21.9345698 21.9345703s9.8398438 21.9345703 21.9345703 21.9345703 21.9345698-9.8398437 21.9345698-21.9345703-9.8398437-21.9345703-21.9345703-21.9345703z"/></g></g></g></g></g><g><path d="m27.5959091 14.8622723 13.3007965 9.0679893c1.6178894 1.1101322 1.6178894 3.5180206-.0188293 4.6279221l-13.2819672 9.0679913c-1.8624668 1.2603226-4.3834591-.075325-4.3834591-2.313961v-2.2574692c0-.3387337-.2821255-.6209755-.6207447-.6209755h-12.290781c-1.4109735 0-2.5398221-1.1287327-2.5398221-2.5397072v-7.3182793c0-1.3921432 1.1288486-2.5211067 2.5398221-2.5211067h12.290781c.3386192 0 .6207447-.282011.6207447-.6205158v-2.2576981c0-2.2576962 2.5209923-3.5933447 4.3834591-2.3141899z" fill="#5ae4a7"/><path d="m26.0280838 38.6162109c-.5297852 0-1.0625-.1308594-1.5605469-.3955078-1.0986328-.5830078-1.7548828-1.6699219-1.7548828-2.9082031v-2.2578125c0-.0625-.059082-.1210938-.1210938-.1210938h-12.2905263c-1.6762695 0-3.0400395-1.3632813-3.0400395-3.0390625v-7.3183594c0-1.6660156 1.36377-3.0214844 3.0400395-3.0214844h12.2905264c.0620117 0 .1210938-.0585938.1210938-.1201172v-2.2578125c0-1.2519531.6601563-2.3466797 1.7651367-2.9287109 1.1020508-.5800781 2.3720703-.5058594 3.4008789.2021484l13.2998047 9.0673828c.8979492.6162109 1.4321289 1.6347656 1.4291992 2.7275391-.0029297 1.09375-.5444336 2.1132813-1.4492188 2.7275391l-13.2807617 9.0664063c-.5664063.3837891-1.2060547.5771484-1.8496094.5771484zm-15.7270498-18.0615234c-1.125 0-2.0400391.9072266-2.0400391 2.0214844v7.3183594c0 1.1435547.8959961 2.0390625 2.0400391 2.0390625h12.2905264c.6181641 0 1.1210938.5029297 1.1210938 1.1210938v2.2578124c0 .8613281.4575195 1.6181641 1.2236328 2.0253906.7705078.4082031 1.6586914.3613281 2.3793945-.1259766l13.2802734-9.0664063c.6411133-.4355469 1.0097656-1.1289063 1.0117188-1.9033203.0019531-.7724609-.3603516-1.4648438-.9936523-1.8994141l-13.2998047-9.0673828c-.0004883 0-.0009766-.0009766-.0014648-.0009766-.7163086-.4912109-1.6025391-.5439453-2.3691406-.1416016-.7709961.40625-1.230957 1.1699219-1.230957 2.0439453v2.2578125c0 .6171875-.5029297 1.1201172-1.1210938 1.1201172h-12.2905265z"/></g></g></svg>