<svg width="111" height="108" viewBox="0 0 111 108" fill="none" xmlns="http://www.w3.org/2000/svg">
<path d="M54.7429 13.8812L55.4986 14.9528L56.2544 13.8812C59.0447 9.92489 62.6374 6.72728 66.7477 4.53255C70.8575 2.33805 75.376 1.2041 79.9508 1.21523L79.9559 1.21522C85.8191 1.19762 91.5646 3.04296 96.4804 6.53213C101.397 10.022 105.27 15.0052 107.608 20.8716C109.946 26.7384 110.643 33.223 109.61 39.5188C108.577 45.8145 105.86 51.6348 101.807 56.2607L101.795 56.2745L101.783 56.2888L101.771 56.3039L57.4746 106.116L57.4741 106.117C57.2111 106.413 56.8996 106.644 56.5609 106.8C56.2223 106.956 55.8613 107.036 55.4986 107.036C55.136 107.036 54.7749 106.956 54.4364 106.8C54.0976 106.644 53.7862 106.413 53.5232 106.117L53.5227 106.116L9.21559 56.292C9.21493 56.2913 9.21428 56.2905 9.21363 56.2898C5.15509 51.6666 2.43296 45.847 1.39447 39.5503C0.355799 33.2523 1.04884 26.7639 3.38476 20.8927C5.72054 15.0219 9.59287 10.034 14.5108 6.54021C19.4277 3.04713 25.1756 1.19894 31.0416 1.21523L31.0464 1.21522C35.6213 1.2041 40.1397 2.33805 44.2496 4.53255C48.3598 6.72728 51.9526 9.92489 54.7429 13.8812Z" fill="#FC1616" stroke="#FC1616" stroke-width="1.84962"/>
</svg>
