<svg width="101" height="104" viewBox="0 0 101 104" fill="none" xmlns="http://www.w3.org/2000/svg">
<path d="M33.7821 80.7219C33.7821 81.1281 33.3137 81.4531 32.7232 81.4531C32.0512 81.5141 31.5829 81.1891 31.5829 80.7219C31.5829 80.3156 32.0512 79.9906 32.6417 79.9906C33.2526 79.9297 33.7821 80.2547 33.7821 80.7219ZM27.4492 79.8078C27.3067 80.2141 27.7139 80.6812 28.3248 80.8031C28.8542 81.0062 29.4651 80.8031 29.5873 80.3969C29.7095 79.9906 29.3226 79.5234 28.7117 79.3406C28.1823 79.1984 27.5917 79.4016 27.4492 79.8078ZM36.4496 79.4625C35.8591 79.6047 35.4518 79.9906 35.5129 80.4578C35.574 80.8641 36.1034 81.1281 36.7143 80.9859C37.3048 80.8437 37.7121 80.4578 37.651 80.0516C37.5899 79.6656 37.0401 79.4016 36.4496 79.4625ZM49.8484 1.625C21.605 1.625 0 23.0141 0 51.1875C0 73.7141 14.2133 92.9906 34.5151 99.775C37.1216 100.242 38.0379 98.6375 38.0379 97.3172C38.0379 96.0578 37.9768 89.1109 37.9768 84.8453C37.9768 84.8453 23.7228 87.8922 20.7294 78.7922C20.7294 78.7922 18.4081 72.8812 15.0685 71.3578C15.0685 71.3578 10.4054 68.1687 15.3944 68.2297C15.3944 68.2297 20.4647 68.6359 23.2544 73.4703C27.7139 81.3109 35.1871 79.0562 38.099 77.7156C38.5673 74.4656 39.8909 72.2109 41.3571 70.8703C29.9742 69.6109 18.4895 67.9656 18.4895 48.425C18.4895 42.8391 20.0371 40.0359 23.2952 36.4609C22.7657 35.1406 21.0349 29.6969 23.8246 22.6687C28.0804 21.3484 37.875 28.1531 37.875 28.1531C41.9476 27.0156 46.3256 26.4266 50.6629 26.4266C55.0002 26.4266 59.3782 27.0156 63.4508 28.1531C63.4508 28.1531 73.2454 21.3281 77.5012 22.6687C80.2909 29.7172 78.5601 35.1406 78.0306 36.4609C81.2887 40.0562 83.2843 42.8594 83.2843 48.425C83.2843 68.0266 71.2905 69.5906 59.9077 70.8703C61.7811 72.475 63.3694 75.5219 63.3694 80.2953C63.3694 87.1406 63.3083 95.6109 63.3083 97.2766C63.3083 98.5969 64.245 100.202 66.8311 99.7344C87.194 92.9906 101 73.7141 101 51.1875C101 23.0141 78.0917 1.625 49.8484 1.625ZM19.7927 71.6828C19.528 71.8859 19.5891 72.3531 19.9353 72.7391C20.2611 73.0641 20.7294 73.2062 20.9942 72.9422C21.2589 72.7391 21.1978 72.2719 20.8516 71.8859C20.5258 71.5609 20.0575 71.4187 19.7927 71.6828ZM17.5935 70.0375C17.451 70.3016 17.6546 70.6266 18.0619 70.8297C18.3877 71.0328 18.795 70.9719 18.9375 70.6875C19.08 70.4234 18.8764 70.0984 18.4692 69.8953C18.0619 69.7734 17.7361 69.8344 17.5935 70.0375ZM24.1911 77.2687C23.8653 77.5328 23.9875 78.1422 24.4558 78.5281C24.9242 78.9953 25.5147 79.0562 25.7794 78.7312C26.0442 78.4672 25.922 77.8578 25.5147 77.4719C25.0667 77.0047 24.4558 76.9437 24.1911 77.2687ZM21.8698 74.2828C21.544 74.4859 21.544 75.0141 21.8698 75.4812C22.1956 75.9484 22.7454 76.1516 23.0101 75.9484C23.3359 75.6844 23.3359 75.1562 23.0101 74.6891C22.725 74.2219 22.1956 74.0187 21.8698 74.2828Z" fill="#FAF126"/>
</svg>
