<svg width="100" height="173" viewBox="0 0 100 173" fill="none" xmlns="http://www.w3.org/2000/svg">
<path d="M42.4623 0.691579C41.7397 -0.143821 40.4767 -0.235246 39.6413 0.487375C38.8059 1.21 38.7145 2.47302 39.4371 3.30842L42.4623 0.691579ZM0.979006 171.5L24.0355 172.815L13.6462 152.19L0.979006 171.5ZM39.4371 3.30842C60.0052 27.0866 74.9335 45.7775 84.2513 61.2396C93.5825 76.7241 97.0853 88.6472 95.3167 98.9905C93.5534 109.303 86.4561 118.575 73.2673 128.537C60.0815 138.496 41.1214 148.914 16.1626 161.612L17.9764 165.177C42.9154 152.489 62.1741 141.928 75.6781 131.729C89.179 121.531 97.2421 111.464 99.2595 99.6647C101.272 87.8964 97.1753 74.9363 87.6773 59.175C78.1658 43.3915 63.0345 24.4744 42.4623 0.691579L39.4371 3.30842Z" fill="black"/>
</svg>
