<svg width="960" height="151" viewBox="0 0 960 151" fill="none" xmlns="http://www.w3.org/2000/svg">
<path d="M5.96046e-08 7.99999V6.99999H-1V7.99999H5.96046e-08ZM32.2 7.99999H33.2V6.99999H32.2V7.99999ZM32.2 148V149H33.2V148H32.2ZM5.96046e-08 148H-1V149H5.96046e-08V148ZM5.96046e-08 8.99999H32.2V6.99999H5.96046e-08V8.99999ZM31.2 7.99999V148H33.2V7.99999H31.2ZM32.2 147H5.96046e-08V149H32.2V147ZM1 148V7.99999H-1V148H1ZM67.5563 7.99999V6.99999H66.7947L66.5922 7.73419L67.5563 7.99999ZM94.1563 7.99999L95.0742 8.39664L95.6777 6.99999H94.1563V7.99999ZM73.1563 56.6V57.6H73.8135L74.0742 56.9966L73.1563 56.6ZM54.1563 56.6L53.1922 56.3342L52.8432 57.6H54.1563V56.6ZM67.5563 8.99999H94.1563V6.99999H67.5563V8.99999ZM93.2383 7.60334L72.2383 56.2033L74.0742 56.9966L95.0742 8.39664L93.2383 7.60334ZM73.1563 55.6H54.1563V57.6H73.1563V55.6ZM55.1203 56.8658L68.5203 8.26579L66.5922 7.73419L53.1922 56.3342L55.1203 56.8658ZM297.011 148V149H298.011V148H297.011ZM266.611 148H265.611V149H266.611V148ZM220.811 148V149H221.811V148H220.811ZM190.411 148H189.411V149H190.411V148ZM144.411 148V149H145.411V148H144.411ZM114.211 148H113.211V149H114.211V148ZM114.211 41.4V40.4H113.211V41.4H114.211ZM144.411 41.4H145.411V40.4H144.411V41.4ZM144.411 55.4H143.411V59.141L145.278 55.899L144.411 55.4ZM216.211 57.2L215.32 57.6532L216.102 59.1915L217.047 57.748L216.211 57.2ZM255.411 39.6C268.937 39.6 279.057 43.251 285.793 49.7212C292.524 56.1864 296.011 65.5973 296.011 77.4H298.011C298.011 65.2027 294.398 55.2136 287.179 48.2788C279.964 41.349 269.285 37.6 255.411 37.6V39.6ZM296.011 77.4V148H298.011V77.4H296.011ZM297.011 147H266.611V149H297.011V147ZM267.611 148V85H265.611V148H267.611ZM267.611 85C267.611 78.4764 266.187 72.2662 262.463 67.6704C258.708 63.0366 252.742 60.2 244.011 60.2V62.2C252.279 62.2 257.614 64.8634 260.909 68.9296C264.235 73.0338 265.611 78.7235 265.611 85H267.611ZM244.011 60.2C235.275 60.2 229.17 63.0887 225.27 67.7318C221.395 72.3447 219.811 78.5531 219.811 85H221.811C221.811 78.8468 223.327 73.1553 226.802 69.0182C230.251 64.9113 235.747 62.2 244.011 62.2V60.2ZM219.811 85V148H221.811V85H219.811ZM220.811 147H190.411V149H220.811V147ZM191.411 148V85H189.411V148H191.411ZM191.411 85C191.411 78.4764 189.987 72.2662 186.263 67.6704C182.508 63.0366 176.542 60.2 167.811 60.2V62.2C176.079 62.2 181.414 64.8634 184.709 68.9296C188.035 73.0338 189.411 78.7235 189.411 85H191.411ZM167.811 60.2C159.07 60.2 152.919 63.142 148.973 67.8039C145.05 72.4374 143.411 78.6435 143.411 85H145.411C145.411 78.9565 146.972 73.2626 150.499 69.0961C154.002 64.958 159.552 62.2 167.811 62.2V60.2ZM143.411 85V148H145.411V85H143.411ZM144.411 147H114.211V149H144.411V147ZM115.211 148V41.4H113.211V148H115.211ZM114.211 42.4H144.411V40.4H114.211V42.4ZM143.411 41.4V55.4H145.411V41.4H143.411ZM145.278 55.899C147.113 52.7103 150.256 48.6469 155.584 45.3773C160.909 42.1098 168.473 39.6 179.211 39.6V37.6C168.148 37.6 160.213 40.1902 154.538 43.6727C148.866 47.153 145.508 51.4897 143.544 54.901L145.278 55.899ZM179.211 39.6C197.559 39.6 209.54 46.2871 215.32 57.6532L217.102 56.7467C210.882 44.5129 198.062 37.6 179.211 37.6V39.6ZM217.047 57.748C220.71 52.1572 232.427 39.6 255.411 39.6V37.6C231.595 37.6 219.312 50.6428 215.374 56.652L217.047 57.748ZM495.702 92.6V91.6H494.906L494.727 92.3751L495.702 92.6ZM529.102 92.6L530.089 92.7567L530.273 91.6H529.102V92.6ZM529.102 63.6V64.6H530.273L530.089 63.4433L529.102 63.6ZM495.702 63.6L494.727 63.8249L494.906 64.6H495.702V63.6ZM450.702 127.6C465.391 127.6 475.842 123.594 483.161 117.177C490.467 110.771 494.546 102.056 496.676 92.8249L494.727 92.3751C492.657 101.344 488.736 109.629 481.842 115.673C474.961 121.706 465.012 125.6 450.702 125.6V127.6ZM495.702 93.6H529.102V91.6H495.702V93.6ZM528.114 92.4433C524.859 112.962 514.52 127.318 500.525 136.566C486.504 145.831 468.76 150 450.702 150V152C469.043 152 487.199 147.769 501.628 138.234C516.083 128.682 526.745 113.838 530.089 92.7567L528.114 92.4433ZM450.702 150C430.652 150 410.993 144.936 396.37 133.439C381.782 121.971 372.102 104.022 372.102 78H370.102C370.102 104.578 380.021 123.129 395.134 135.011C410.21 146.864 430.351 152 450.702 152V150ZM372.102 78C372.102 51.9783 381.782 34.0806 396.368 22.6624C410.991 11.2152 430.65 6.19999 450.702 6.19999V4.19999C430.353 4.19999 410.212 9.28482 395.135 21.0876C380.021 32.9194 370.102 51.4217 370.102 78H372.102ZM450.702 6.19999C468.76 6.19999 486.504 10.3691 500.525 19.6343C514.52 28.8823 524.859 43.2384 528.114 63.7567L530.089 63.4433C526.745 42.3615 516.083 27.5177 501.628 17.9657C487.199 8.43089 469.043 4.19999 450.702 4.19999V6.19999ZM529.102 62.6H495.702V64.6H529.102V62.6ZM496.676 63.3751C494.546 54.1441 490.467 45.4289 483.161 39.0231C475.842 32.6064 465.391 28.6 450.702 28.6V30.6C465.012 30.6 474.961 34.4936 481.842 40.5269C488.736 46.5711 492.657 54.8559 494.727 63.8249L496.676 63.3751ZM450.702 28.6C433.677 28.6 421.721 34.0312 414.041 43.0256C406.385 51.9925 403.102 64.3565 403.102 78H405.102C405.102 64.6435 408.319 52.8075 415.562 44.3244C422.782 35.8688 434.126 30.6 450.702 30.6V28.6ZM403.102 78C403.102 91.742 406.384 104.156 414.04 113.148C421.72 122.169 433.677 127.6 450.702 127.6V125.6C434.126 125.6 422.783 120.331 415.563 111.852C408.319 103.344 405.102 91.458 405.102 78H403.102ZM657.423 148V149H658.423V148H657.423ZM627.023 148H626.023V149H627.023V148ZM627.023 133.8H628.023V130.457L626.188 133.251L627.023 133.8ZM627.023 83.8L626.962 84.7981L628.023 84.8637V83.8H627.023ZM574.223 72.2V73.2H575.03L575.201 72.4113L574.223 72.2ZM545.823 72.2L544.834 72.0574L544.669 73.2H545.823V72.2ZM627.023 116.8L627.883 117.312L628.023 117.075V116.8H627.023ZM627.023 101.8H628.023V100.853L627.078 100.801L627.023 101.8ZM600.023 39.6C615.261 39.6 629.398 41.7969 639.695 47.7893C649.908 53.7327 656.423 63.4509 656.423 78.8H658.423C658.423 62.7491 651.539 52.3673 640.701 46.0607C629.949 39.8031 615.386 37.6 600.023 37.6V39.6ZM656.423 78.8V148H658.423V78.8H656.423ZM657.423 147H627.023V149H657.423V147ZM628.023 148V133.8H626.023V148H628.023ZM626.188 133.251C621.821 139.896 606.785 150 583.223 150V152C607.262 152 623.026 141.704 627.859 134.349L626.188 133.251ZM583.223 150C570.841 150 560.52 147.421 553.324 142.357C546.174 137.326 542.023 129.785 542.023 119.6H540.023C540.023 130.415 544.473 138.574 552.173 143.993C559.826 149.379 570.606 152 583.223 152V150ZM542.023 119.6C542.023 114.078 542.74 108.917 544.903 104.336C547.056 99.7753 550.676 95.7197 556.606 92.4508C568.539 85.8733 589.787 82.4996 626.962 84.7981L627.085 82.8019C589.86 80.5004 568.108 83.8267 555.641 90.6992C549.371 94.1553 545.441 98.5122 543.094 103.482C540.757 108.433 540.023 113.922 540.023 119.6H542.023ZM628.023 83.8V78.8H626.023V83.8H628.023ZM628.023 78.8C628.023 73.0642 626.742 67.8648 622.427 64.1427C618.154 60.458 611.108 58.4 600.023 58.4V60.4C610.939 60.4 617.392 62.442 621.12 65.6572C624.805 68.8352 626.023 73.3358 626.023 78.8H628.023ZM600.023 58.4C590.752 58.4 584.496 59.7558 580.324 62.1584C576.091 64.5966 574.096 68.059 573.246 71.9887L575.201 72.4113C575.951 68.941 577.656 66.0034 581.323 63.8915C585.051 61.7442 590.895 60.4 600.023 60.4V58.4ZM574.223 71.2H545.823V73.2H574.223V71.2ZM546.813 72.3426C548.467 60.8635 554.523 52.7224 563.747 47.4168C573.013 42.0868 585.518 39.6 600.023 39.6V37.6C585.329 37.6 572.433 40.1132 562.75 45.6832C553.024 51.2776 546.58 59.9365 544.834 72.0574L546.813 72.3426ZM628.023 116.8V101.8H626.023V116.8H628.023ZM627.078 100.801C606.888 99.702 592.877 100.086 583.893 102.715C579.38 104.036 576.037 105.949 573.828 108.615C571.607 111.296 570.623 114.629 570.623 118.6H572.623C572.623 114.971 573.515 112.129 575.369 109.891C577.235 107.638 580.167 105.889 584.454 104.635C593.07 102.114 606.759 101.698 626.969 102.799L627.078 100.801ZM570.623 118.6C570.623 123.89 572.607 127.732 576.433 130.191C580.175 132.597 585.558 133.6 592.223 133.6V131.6C585.689 131.6 580.772 130.603 577.514 128.509C574.34 126.468 572.623 123.31 572.623 118.6H570.623ZM592.223 133.6C608.844 133.6 622.044 127.113 627.883 117.312L626.164 116.288C620.803 125.287 608.403 131.6 592.223 131.6V133.6ZM767.398 40.4H768.398V39.6399L767.666 39.4365L767.398 40.4ZM767.398 68.4V69.4H768.398V68.4H767.398ZM766.398 68.4L766.01 69.3216L766.196 69.4H766.398V68.4ZM711.798 148V149H712.798V148H711.798ZM681.398 148H680.398V149H681.398V148ZM681.398 41.4V40.4H680.398V41.4H681.398ZM711.798 41.4H712.798V40.4H711.798V41.4ZM711.798 61H710.798V64.7231L712.664 61.501L711.798 61ZM751.598 39.8C758.555 39.8 763.654 40.3976 767.131 41.3635L767.666 39.4365C763.943 38.4023 758.642 37.8 751.598 37.8V39.8ZM766.398 40.4V68.4H768.398V40.4H766.398ZM767.398 67.4H766.398V69.4H767.398V67.4ZM766.786 67.4784C762.849 65.8206 755.515 64 746.198 64V66C755.282 66 762.347 67.7794 766.01 69.3216L766.786 67.4784ZM746.198 64C733.379 64 724.485 68.0268 718.807 74.3042C713.146 80.5622 710.798 88.9275 710.798 97.4H712.798C712.798 89.2725 715.051 81.4378 720.29 75.6458C725.512 69.8732 733.818 66 746.198 66V64ZM710.798 97.4V148H712.798V97.4H710.798ZM711.798 147H681.398V149H711.798V147ZM682.398 148V41.4H680.398V148H682.398ZM681.398 42.4H711.798V40.4H681.398V42.4ZM710.798 41.4V61H712.798V41.4H710.798ZM712.664 61.501C716.959 54.0819 729.282 39.8 751.598 39.8V37.8C728.315 37.8 715.438 52.7181 710.933 60.499L712.664 61.501ZM783.352 0.399993V-0.600007H782.352V0.399993H783.352ZM813.752 0.399993H814.752V-0.600007H813.752V0.399993ZM813.752 148V149H814.752V148H813.752ZM783.352 148H782.352V149H783.352V148ZM783.352 1.39999H813.752V-0.600007H783.352V1.39999ZM812.752 0.399993V148H814.752V0.399993H812.752ZM813.752 147H783.352V149H813.752V147ZM784.352 148V0.399993H782.352V148H784.352ZM895.444 39.6C910.892 39.6 926.561 43.5637 938.343 52.4242C950.085 61.2557 958.044 75.0066 958.044 94.8H960.044C960.044 74.3934 951.802 60.0443 939.545 50.8258C927.326 41.6363 911.196 37.6 895.444 37.6V39.6ZM958.044 94.8C958.044 114.593 950.085 128.344 938.343 137.176C926.561 146.036 910.892 150 895.444 150V152C911.196 152 927.326 147.964 939.545 138.774C951.802 129.556 960.044 115.207 960.044 94.8H958.044ZM895.444 150C880.097 150 864.426 146.037 852.619 137.175C840.85 128.343 832.844 114.591 832.844 94.8H830.844C830.844 115.209 839.137 129.557 851.418 138.775C863.661 147.963 879.791 152 895.444 152V150ZM832.844 94.8C832.844 75.0089 840.85 61.2575 852.619 52.4248C864.426 43.5633 880.097 39.6 895.444 39.6V37.6C879.791 37.6 863.661 41.6367 851.418 50.8252C839.137 60.0425 830.844 74.3911 830.844 94.8H832.844ZM895.444 131C908.474 131 917.574 126.766 923.4 120.029C929.204 113.318 931.644 104.257 931.644 94.8H929.644C929.644 103.943 927.283 112.482 921.887 118.721C916.514 124.934 908.014 129 895.444 129V131ZM931.644 94.8C931.644 85.2451 929.205 76.134 923.401 69.3973C917.575 62.6345 908.474 58.4 895.444 58.4V60.4C908.014 60.4 916.513 64.4655 921.886 70.7027C927.282 76.966 929.644 85.5549 929.644 94.8H931.644ZM895.444 58.4C882.413 58.4 873.36 62.6349 867.583 69.4007C861.83 76.1388 859.444 85.2496 859.444 94.8H861.444C861.444 85.5504 863.758 76.9612 869.104 70.6993C874.427 64.4651 882.874 60.4 895.444 60.4V58.4ZM859.444 94.8C859.444 104.253 861.831 113.313 867.584 120.026C873.361 126.765 882.413 131 895.444 131V129C882.874 129 874.426 124.935 869.103 118.724C863.756 112.487 861.444 103.947 861.444 94.8H859.444Z" fill="black"/>
</svg>
