<svg width="171" height="191" viewBox="0 0 171 191" fill="none" xmlns="http://www.w3.org/2000/svg">
<g clip-path="url(#clip0_9_525)">
<path d="M2.38991 17.69C9.47991 12.93 16.6399 7.65 24.8299 4.92C26.8099 4.26 30.1699 3.11 32.0399 4.59C33.3399 5.61 32.7699 7.14 32.1999 8.44C31.2699 10.56 29.4899 12.33 28.0299 14.09C24.7299 18.06 21.0099 21.67 17.8199 25.73C16.3099 27.66 14.8899 29.67 13.5599 31.73C12.2299 33.79 11.6499 35.92 11.9399 38.27C12.0199 38.93 12.0999 39.12 12.6899 39.42C13.1599 39.65 13.6999 39.95 14.1999 40.11C15.2999 40.47 16.9299 39.81 18.0199 39.5C20.4199 38.81 22.5599 37.65 24.7999 36.57C29.6299 34.25 34.2999 31.62 38.9999 29.06C44.3099 26.17 49.6799 23.39 55.1799 20.87C57.7699 19.68 60.4099 18.41 63.0799 17.42C64.3999 16.93 65.7499 16.6 67.1399 16.38C68.5299 16.16 69.0799 15.7 70.0899 16.86L69.8899 16.17L69.4599 18.4L70.1099 16.94C67.2099 20.92 63.4199 24.03 59.7899 27.32C55.8499 30.9 51.8699 34.43 47.9899 38.08C44.1099 41.73 40.4199 45.48 36.7599 49.31C33.0999 53.14 29.5499 56.9 26.3199 60.97C24.6099 63.13 23.1899 65.46 21.8999 67.89C20.6099 70.32 19.4099 72.66 19.0499 75.55C19.0199 75.81 19.0799 76.04 19.2499 76.24C20.0499 76.71 21.1799 77.69 22.1099 77.72C22.7499 77.73 23.5899 77.35 24.1999 77.19L26.2999 76.64C27.5399 76.31 28.8199 76.06 30.0399 75.65C31.4099 75.19 32.7499 74.58 34.0999 74.06C39.2799 72.02 44.4299 69.92 49.5599 67.77C59.6499 63.55 69.6999 59.04 80.0999 55.62C82.8999 54.7 85.5099 53.58 88.4899 53.34C89.2599 53.28 89.8599 53.24 90.5799 52.96C91.0199 52.79 91.5099 52.66 91.9799 52.71C93.0699 52.82 93.7999 53.67 94.3699 54.52L94.2599 53.38C93.6399 55.08 92.7199 56.64 91.3299 57.83C90.5499 58.5 89.6499 58.94 88.8199 59.53C87.6799 60.33 86.5899 61.25 85.4899 62.1C80.9799 65.58 76.4899 69.08 72.0099 72.6C63.3099 79.42 54.7599 86.36 46.7499 93.98C44.7999 95.83 42.6699 97.44 40.9699 99.56C39.2699 101.68 38.0799 104.02 37.2899 106.55C37.1699 106.93 37.0799 107.8 37.6999 107.86C38.9499 107.99 40.4399 108.39 41.6799 108.2C43.0399 107.99 44.4999 107.23 45.7999 106.77C48.4499 105.83 50.9899 104.75 53.5499 103.59C58.7399 101.22 63.8699 98.74 68.9999 96.23C78.9299 91.37 88.7999 86.34 99.1599 82.42C101.91 81.38 104.63 80.24 107.47 79.46C108.21 79.26 108.95 79.07 109.7 78.91C110.54 78.72 111.12 78.38 111.89 78.02C113.11 77.45 114.28 77.95 115.25 78.76L116.13 76.11C114.03 78.09 112.01 80.15 109.69 81.87L102.48 87.23C97.7699 90.73 93.0199 94.19 88.3199 97.71C79.0399 104.66 69.8199 111.78 61.2399 119.58C58.8899 121.71 56.6599 123.94 54.4399 126.21C52.2199 128.48 50.2399 130.49 48.7699 133.28L50.0399 131.83C48.7699 132.91 47.5099 134.16 47.1199 135.85C46.8399 137.03 47.2399 138.74 48.3699 139.43C49.3399 140.02 51.4099 139.31 52.4899 139.1C54.0499 138.79 55.5999 138.4 57.1099 137.92C60.0299 136.98 62.8699 135.7 65.5199 134.15C68.4899 132.41 71.6299 130.98 74.7199 129.46C87.0099 123.44 99.3499 117.49 112.28 112.93C119.33 110.44 126.45 107.65 134.02 107.7L133.16 107.2C133.4 107.72 133.66 108.31 133.69 108.89C133.69 109.09 133.67 109.29 133.63 109.48C133.61 109.56 133.68 109.54 133.58 109.58C133.74 109.52 133.85 109.44 133.45 109.65C133.11 109.82 132.79 110.02 132.44 110.18C131.31 110.68 130.4 111.02 129.41 111.8C125.74 114.69 122.02 117.52 118.26 120.3C111.04 125.63 103.71 130.64 97.1999 136.85C94.3499 139.56 91.0799 142.05 89.8399 145.95C89.4199 147.26 88.6699 149.97 89.8099 151.02C91.0399 152.16 92.7199 152.76 94.3799 152.8C96.4299 152.85 98.2999 151.88 100.21 151.28C102.48 150.57 104.73 149.84 106.99 149.09C111.49 147.6 115.94 145.96 120.42 144.4C125.2 142.73 130.07 141.31 134.98 140.11C137.51 139.5 140.1 139.08 142.56 138.25C144.89 137.47 147.18 137.81 149.34 138.94L148.93 137.63C148.47 138.83 147.82 139.95 146.86 140.82C145.72 141.84 144.27 142.48 143.03 143.35C139.6 145.76 136.17 148.16 132.68 150.47C129.46 152.61 126.5 155.05 123.37 157.3C121.8 158.43 120.36 159.41 119.33 161.11C118.54 162.41 118.16 163.88 118.26 165.41C118.28 165.73 118.34 166.2 118.76 166.27C122.36 166.85 125.99 166.54 129.4 165.24C132.99 163.88 136.81 163 140.5 161.93C144.19 160.86 147.85 159.74 151.58 158.83C152.52 158.6 153.49 158.42 154.43 158.16C155.21 157.95 155.93 157.54 156.73 157.4C158.2 157.14 159.44 157.77 160.47 158.78L160.36 157.64C159.68 159.48 158.32 160.28 156.9 161.53C155.03 163.18 153.05 164.66 151.08 166.17C150.06 166.95 149.11 167.81 148.13 168.64C147.26 169.37 146.29 169.95 145.43 170.69C143.85 172.05 142.69 173.96 142.84 176.1C142.87 176.54 142.93 176.77 143.34 176.96C144.92 177.69 146.5 177.88 148.22 177.73C150.17 177.56 152.14 177.53 154.09 177.31C156.04 177.09 157.88 176.86 159.8 176.72C161.34 176.6 162.54 176.14 163.5 177.61L163.61 175.97C162.7 177.69 161.26 179.04 160.01 180.51C158.76 181.98 157.19 183.85 159.09 185.44C159.65 185.91 160.34 186.09 161.05 186.13C162.23 186.2 163.4 186.2 164.58 186.31C165.58 186.41 166.15 186.27 166.31 187.38C166.42 188.15 166.35 188.93 166.52 189.7C166.89 191.4 170.76 188.44 170.4 186.76C170.22 185.9 170.34 185.01 170.14 184.15C169.85 182.95 169.16 182.59 168.01 182.48C166.71 182.35 165.36 182.13 164.05 182.16C163.07 182.19 162.42 182.01 162.05 181.02L161.43 182.87C163.16 180.38 165.5 178.42 166.92 175.7C167.2 175.16 167.39 174.6 167.03 174.06C166.22 172.82 164.94 172.43 163.51 172.6C161.57 172.82 159.6 172.9 157.66 173.18C155.72 173.46 153.73 173.62 151.75 173.69C149.77 173.76 148.17 173.95 146.27 173.07L146.77 173.93C146.75 173.57 146.81 173.21 146.79 172.86C146.77 172.33 146.97 172.7 146.69 172.9C147.64 172.23 148.54 171.56 149.44 170.8C151.3 169.23 153.26 167.79 155.15 166.26C158.66 163.43 162.49 160.75 164.1 156.37C164.22 156.04 164.28 155.5 163.99 155.23C162.97 154.23 161.75 153.55 160.31 153.42C158.61 153.27 157.24 153.96 155.66 154.4C151.83 155.48 147.94 156.36 144.11 157.48C140.28 158.6 136.5 159.69 132.69 160.79C130.89 161.31 129.2 162.1 127.34 162.4C125.48 162.7 123.56 162.69 121.67 162.38L122.17 163.24C122.1 162.2 122.1 161.23 122.96 160.67C124.46 159.69 125.83 158.55 127.26 157.46C130.43 155.05 133.78 152.88 137.07 150.63C138.7 149.51 140.32 148.39 141.94 147.26C143.56 146.13 145.16 145.24 146.71 144.14C149.45 142.21 151.47 139.49 152.65 136.37C152.86 135.82 152.77 135.33 152.24 135.06C150.61 134.21 148.84 133.78 147 133.86C144.93 133.96 143.04 134.83 141.04 135.26C136.94 136.13 132.88 137.14 128.86 138.33C120.63 140.75 112.63 143.93 104.46 146.56C103.29 146.94 102.12 147.31 100.95 147.67C99.9699 147.97 99.0399 148.45 98.0399 148.69C96.1399 149.15 94.4299 148.48 93.0099 147.21L93.2099 147.9C93.1399 146.25 93.3299 144.54 94.2699 143.14C94.6599 142.57 95.1499 142.11 95.6799 141.67C96.6499 140.85 97.5199 139.96 98.4299 139.08C101.74 135.89 105.27 132.92 108.96 130.18C112.92 127.25 116.97 124.45 120.92 121.5C122.92 120.01 124.91 118.5 126.89 116.97C127.85 116.23 128.8 115.49 129.75 114.74C129.94 114.59 130.13 114.44 130.32 114.29C130.93 113.83 129.86 114.45 130.48 114.19C131.06 113.94 131.66 113.73 132.23 113.45C135.67 111.8 138.82 108.18 136.99 104.26C136.81 103.86 136.56 103.76 136.13 103.76C133.18 103.74 130.27 104.07 127.39 104.73C124.51 105.39 121.68 106.45 118.86 107.37C113.15 109.23 107.52 111.31 101.97 113.61C90.6299 118.3 79.5799 123.82 68.5999 129.3C65.8299 130.68 63.2399 132.36 60.3399 133.48C57.4399 134.6 54.3099 135.35 51.1599 135.72L51.8499 135.92C51.4399 135.5 50.9399 135.01 50.8899 134.38C50.8899 134.34 50.8499 134.15 50.7999 134.44C50.7699 134.62 51.1799 134.13 51.2499 134.06C52.2499 133.06 52.7899 131.59 53.6899 130.47C54.4299 129.56 55.3299 128.82 56.1599 128C57.2499 126.9 58.3099 125.78 59.4099 124.7C63.5699 120.65 68.0099 116.91 72.5099 113.24C81.9699 105.51 91.8299 98.32 101.64 91.06C104.37 89.04 107.1 87 109.83 84.97C112.71 82.83 115.25 80.36 117.86 77.9C118.32 77.46 119.52 75.9 118.74 75.25C116.86 73.67 114.7 73.52 112.49 74.55C111.87 74.84 111.86 74.94 111.35 75.08C110.69 75.27 110 75.38 109.33 75.55C108.07 75.88 106.82 76.26 105.59 76.69C100.55 78.46 95.5799 80.51 90.6899 82.67C80.4799 87.19 70.5199 92.29 60.4799 97.2C57.6699 98.57 54.7899 99.82 51.9399 101.12C49.0899 102.42 46.0499 103.37 43.0899 104.43L43.9299 104.37L40.5699 104.01L40.9799 105.32C41.5799 103.4 42.4599 101.58 43.7999 100.05C44.3999 99.37 45.0699 98.75 45.7799 98.2C46.9199 97.32 47.9199 96.28 48.9699 95.28C52.8499 91.6 56.8499 88.05 60.9599 84.63C69.5699 77.47 78.5099 70.69 87.3699 63.85C89.2999 62.36 91.4099 61.13 93.1999 59.47C94.8499 57.93 96.2399 56.05 97.1899 54C97.5999 53.12 98.3299 51.94 97.8499 51C97.4099 50.15 96.5099 49.43 95.6399 49.07C94.8599 48.75 93.9599 48.73 93.1299 48.87C92.6199 48.96 92.1199 49.1 91.6399 49.29L91.1399 49.51L91.2699 49.37C90.8199 49.43 90.3599 49.43 89.9099 49.48C87.2699 49.78 84.9299 50.67 82.4399 51.52C79.9499 52.37 77.2699 53.26 74.7099 54.22C69.5099 56.18 64.3799 58.36 59.2499 60.49C53.3699 62.93 47.5299 65.51 41.5999 67.84L33.0399 71.21C30.0499 72.39 26.8699 73.07 23.7599 73.89L24.8999 74L22.7299 72.73L22.9299 73.42C23.0599 72.37 23.2899 71.35 23.6899 70.36C24.0899 69.37 24.7499 68.45 25.2499 67.47C26.2099 65.57 27.3399 63.78 28.6499 62.1C31.5099 58.43 34.7899 55 37.9899 51.62C44.7599 44.49 51.8999 37.78 59.1999 31.19C62.6699 28.05 66.4199 25.04 69.5599 21.56C71.1399 19.81 73.0199 17.96 73.4699 15.59C73.6799 14.5 74.0399 13.63 73.0699 12.83C72.3899 12.27 71.5499 12.01 70.6699 12.1C69.6899 12.19 68.6699 12.53 67.6999 12.73C66.5299 12.97 65.3799 13.28 64.2599 13.69C62.0099 14.53 59.8099 15.61 57.6099 16.58C53.0599 18.59 48.5999 20.8 44.1899 23.1C39.2999 25.65 34.5199 28.4 29.6299 30.95C27.2999 32.17 24.9399 33.37 22.5699 34.51C21.4199 35.06 20.2099 35.49 18.9899 35.83C18.4799 35.97 17.8299 36.25 17.3099 36.23C16.6599 36.21 15.9499 35.74 15.3799 35.48L15.8499 35.95C15.3699 33 17.1699 30.92 18.8099 28.66C20.5999 26.18 22.5799 23.89 24.6699 21.66C26.9299 19.24 29.1199 16.74 31.2199 14.18C33.1499 11.83 35.0899 9.55 36.1299 6.65C36.8099 4.75 37.2699 2.46 35.4599 1.03C34.1999 -0.0300014 32.3999 -0.0900015 30.8399 0.0699985C27.1099 0.449999 23.4899 2.04 20.1399 3.64C13.5899 6.78 7.62991 11.01 1.61991 15.04C0.909911 15.52 -0.290089 16.87 0.0599109 17.83C0.449911 18.88 1.82991 18.05 2.37991 17.68L2.38991 17.69Z" fill="black"/>
</g>
<defs>
<clipPath id="clip0_9_525">
<rect width="170.42" height="190.18" fill="white"/>
</clipPath>
</defs>
</svg>
