<svg width="324" height="80" viewBox="0 0 324 80" fill="none" xmlns="http://www.w3.org/2000/svg">
<path d="M3 8.28571C11.8095 1.23809 20.619 1.23809 29.4286 8.28571C38.2381 15.3333 47.0476 15.3333 55.8571 8.28571C64.6667 1.23809 73.4762 1.23809 82.2857 8.28571C91.0952 15.3333 99.9048 15.3333 108.714 8.28571C117.524 1.23809 126.333 1.23809 135.143 8.28571C143.952 15.3333 152.762 15.3333 161.571 8.28571" stroke="#010101" stroke-width="5" stroke-linecap="round"/>
<path d="M3 40C11.8095 32.9524 20.619 32.9524 29.4286 40C38.2381 47.0476 47.0476 47.0476 55.8571 40C64.6667 32.9524 73.4762 32.9524 82.2857 40C91.0952 47.0476 99.9048 47.0476 108.714 40C117.524 32.9524 126.333 32.9524 135.143 40C143.952 47.0476 152.762 47.0476 161.571 40" stroke="#010101" stroke-width="5" stroke-linecap="round"/>
<path d="M3 71.7143C11.8095 64.6667 20.619 64.6667 29.4286 71.7143C38.2381 78.7619 47.0476 78.7619 55.8571 71.7143C64.6667 64.6667 73.4762 64.6667 82.2857 71.7143C91.0952 78.7619 99.9048 78.7619 108.714 71.7143C117.524 64.6667 126.333 64.6667 135.143 71.7143C143.952 78.7619 152.762 78.7619 161.571 71.7143" stroke="#010101" stroke-width="5" stroke-linecap="round"/>
<path d="M162 8.28571C170.81 1.23809 179.619 1.23809 188.429 8.28571C197.238 15.3333 206.048 15.3333 214.857 8.28571C223.667 1.23809 232.476 1.23809 241.286 8.28571C250.095 15.3333 258.905 15.3333 267.714 8.28571C276.524 1.23809 285.333 1.23809 294.143 8.28571C302.952 15.3333 311.762 15.3333 320.571 8.28571" stroke="#010101" stroke-width="5" stroke-linecap="round"/>
<path d="M162 40C170.81 32.9524 179.619 32.9524 188.429 40C197.238 47.0476 206.048 47.0476 214.857 40C223.667 32.9524 232.476 32.9524 241.286 40C250.095 47.0476 258.905 47.0476 267.714 40C276.524 32.9524 285.333 32.9524 294.143 40C302.952 47.0476 311.762 47.0476 320.571 40" stroke="#010101" stroke-width="5" stroke-linecap="round"/>
<path d="M162 71.7143C170.81 64.6667 179.619 64.6667 188.429 71.7143C197.238 78.7619 206.048 78.7619 214.857 71.7143C223.667 64.6667 232.476 64.6667 241.286 71.7143C250.095 78.7619 258.905 78.7619 267.714 71.7143C276.524 64.6667 285.333 64.6667 294.143 71.7143C302.952 78.7619 311.762 78.7619 320.571 71.7143" stroke="#010101" stroke-width="5" stroke-linecap="round"/>
</svg>
